#!OML:ASF F:\VICON\USERDATA\INSTALL\rory3\rory3.ASF
:FULLY-SPECIFIED
:DEGREES
4301
root 10.4029 17.5055 4.90755 435.087 86.5638 441.06
lowerback 12.8584 0.645608 -1.41125
upperback 1.25017 0.698036 -0.262455
thorax -5.90978 0.39877 0.394842
lowerneck -21.0634 -2.34629 -10.622
upperneck 33.0147 0.578192 2.36996
head 15.0831 -0.50956 3.00414
rclavicle 1.26849e-014 -6.36111e-015
rhumerus -37.2154 -11.0462 -78.1218
rradius 38.1561
rwrist 6.29457
rhand -13.5904 12.2155
rfingers 7.12502
rthumb 12.524 -17.3892
lclavicle 1.26849e-014 -6.36111e-015
lhumerus -33.3091 12.4435 78.0473
lradius 35.6217
lwrist 0.480341
lhand -23.2783 21.6495
lfingers 7.12502
lthumb 3.17429 51.6056
rfemur -12.1406 -3.11474 20.2202
rtibia 41.8779
rfoot -19.9718 -5.36225
rtoes 1.24166
lfemur -5.86191 -4.92853 -24.0695
ltibia 32.5373
lfoot -17.0849 -9.37504
ltoes 0.605627
4302
root 10.4303 17.4939 4.8928 439.712 87.0691 445.652
lowerback 12.879 0.50631 -0.818627
upperback 1.1814 0.601178 -0.156973
thorax -5.98735 0.337343 0.187794
lowerneck -21.0641 -2.28093 -10.5395
upperneck 33.1808 0.70839 2.25047
head 15.1517 -0.462702 2.96988
rclavicle -1.09953e-014 -7.95139e-016
rhumerus -37.2445 -10.85 -78.068
rradius 38.1242
rwrist 6.14506
rhand -13.6612 12.1201
rfingers 7.12502
rthumb 12.4558 -17.4888
lclavicle -1.09953e-014 -7.95139e-016
lhumerus -33.4868 12.7771 77.9913
lradius 35.4344
lwrist 0.458076
lhand -23.2266 21.7191
lfingers 7.12502
lthumb 3.22427 51.6745
rfemur -11.7893 -3.6276 20.5639
rtibia 41.4246
rfoot -20.2934 -4.89986
rtoes 0.721632
lfemur -6.13042 -4.94824 -23.5557
ltibia 33.146
lfoot -17.5688 -9.67277
ltoes -1.27462
4303
root 10.4562 17.4917 4.87457 445.591 87.469 451.459
lowerback 12.8473 0.429717 -0.30249
upperback 1.12364 0.580232 -0.0168054
thorax -6.02711 0.315015 0.0474875
lowerneck -21.0519 -2.28022 -10.4735
upperneck 33.3368 0.797919 2.00257
head 15.2206 -0.453038 2.87593
rclavicle 5.8393e-016 -3.97569e-016
rhumerus -37.3191 -10.8291 -77.8212
rradius 38.1298
rwrist 6.2093
rhand -13.5377 12.091
rfingers 7.12502
rthumb 12.5749 -17.5105
lclavicle 5.8393e-016 -3.97569e-016
lhumerus -33.5795 13.1399 78.122
lradius 35.2206
lwrist 0.367193
lhand -23.5328 21.7212
lfingers 7.12502
lthumb 2.92854 51.6808
rfemur -11.5948 -4.35422 20.8348
rtibia 41.0693
rfoot -20.3399 -4.58137
rtoes -0.0920534
lfemur -6.43392 -4.95295 -23.1171
ltibia 33.7336
lfoot -18.0366 -9.99869
ltoes -2.05317
4304
root 10.4792 17.4943 4.84752 452.451 87.7436 458.11
lowerback 12.7061 0.381378 0.160658
upperback 1.03112 0.589509 0.147819
thorax -6.04359 0.308392 -0.0417439
lowerneck -21.0717 -2.28961 -10.5787
upperneck 33.5204 0.91174 1.85267
head 15.3088 -0.4417 2.85825
rclavicle 3.60297e-015 5.1684e-015
rhumerus -37.3075 -10.7819 -77.4258
rradius 38.0134
rwrist 6.34479
rhand -13.3583 12.2541
rfingers 7.12502
rthumb 12.7478 -17.3368
lclavicle 3.60297e-015 5.1684e-015
lhumerus -33.7055 13.4581 78.4114
lradius 35.0584
lwrist 0.312211
lhand -23.7935 21.846
lfingers 7.12502
lthumb 2.6768 51.809
rfemur -11.6544 -5.23937 20.9938
rtibia 40.7841
rfoot -20.1865 -4.40669
rtoes -1.35265
lfemur -6.91479 -5.14895 -22.8234
ltibia 34.3158
lfoot -18.2896 -10.2837
ltoes -0.80894
4305
root 10.4979 17.4986 4.81432 462.009 88.0858 467.328
lowerback 12.5294 0.323461 0.806691
upperback 0.870043 0.606639 0.267487
thorax -6.11034 0.298913 -0.282828
lowerneck -21.1831 -2.27969 -10.5038
upperneck 33.7913 0.998159 1.71059
head 15.46 -0.421277 2.81133
rclavicle -8.12532e-015 5.96354e-015
rhumerus -37.3602 -10.6703 -77.1739
rradius 37.9723
rwrist 6.32814
rhand -13.3665 12.1694
rfingers 7.12502
rthumb 12.7398 -17.422
lclavicle -8.12532e-015 5.96354e-015
lhumerus -33.657 13.8359 78.5737
lradius 34.4912
lwrist 0.252896
lhand -24.1017 21.6339
lfingers 7.12502
lthumb 2.37912 51.6004
rfemur -11.8869 -6.06117 21.2765
rtibia 40.5325
rfoot -20.0315 -4.38658
rtoes -2.1122
lfemur -7.575 -5.26714 -22.4056
ltibia 34.8689
lfoot -18.5926 -10.4676
ltoes -1.6585
4306
root 10.5188 17.4997 4.79409 474.986 88.5885 480.165
lowerback 12.4793 0.326355 1.51313
upperback 0.79104 0.719131 0.425816
thorax -6.15872 0.335971 -0.534666
lowerneck -21.2005 -2.28744 -10.3856
upperneck 33.9919 0.994641 1.64122
head 15.5616 -0.419747 2.76808
rclavicle 3.35449e-016 5.1684e-015
rhumerus -37.4303 -11.0302 -76.8204
rradius 37.9192
rwrist 6.64158
rhand -13.4077 12.2549
rfingers 7.12502
rthumb 12.7002 -17.339
lclavicle 3.35449e-016 5.1684e-015
lhumerus -33.5395 14.2167 78.666
lradius 33.8764
lwrist -0.108794
lhand -24.1784 21.5788
lfingers 7.12502
lthumb 2.30503 51.5461
rfemur -11.8564 -6.43774 21.8495
rtibia 40.3014
rfoot -19.9927 -4.44785
rtoes -1.9647
lfemur -7.99398 -5.02046 -21.6664
ltibia 35.4159
lfoot -18.9757 -11.1148
ltoes -2.61313
4307
root 10.5441 17.4993 4.78955 487.697 88.9674 493.083
lowerback 12.7203 0.405861 1.83884
upperback 0.821552 0.893546 0.640131
thorax -6.25664 0.416129 -0.526204
lowerneck -21.1516 -2.2903 -10.3479
upperneck 34.1113 1.01009 1.58633
head 15.6082 -0.415692 2.74525
rclavicle 9.42985e-015 1.11319e-014
rhumerus -37.437 -11.3114 -76.364
rradius 37.7862
rwrist 6.80462
rhand -13.1436 12.297
rfingers 7.12502
rthumb 12.9547 -17.2808
lclavicle 9.42985e-015 1.11319e-014
lhumerus -34.1087 14.2208 78.926
lradius 34.5268
lwrist -0.256239
lhand -23.985 21.9227
lfingers 7.12502
lthumb 2.49185 51.8879
rfemur -11.3865 -6.4763 22.3158
rtibia 40.0663
rfoot -20.0022 -4.40581
rtoes -1.61594
lfemur -7.92397 -4.89635 -21.0301
ltibia 35.9203
lfoot -19.0798 -12.3664
ltoes -0.692337
4308
root 10.5637 17.5018 4.764 493.305 89.1068 498.632
lowerback 12.8018 0.453884 2.18142
upperback 0.755263 1.01168 0.67381
thorax -6.36504 0.462955 -0.70651
lowerneck -21.1656 -2.28042 -10.2276
upperneck 34.1858 1.03824 1.4615
head 15.6472 -0.406549 2.67927
rclavicle -3.72721e-015 8.74653e-015
rhumerus -37.4472 -11.003 -76.2348
rradius 37.6894
rwrist 6.3018
rhand -13.4225 12.1658
rfingers 7.12502
rthumb 12.6859 -17.4289
lclavicle -3.72721e-015 8.74653e-015
lhumerus -34.109 15.1959 78.7642
lradius 33.9407
lwrist -1.3012
lhand -23.6262 21.4121
lfingers 7.12502
lthumb 2.83834 51.373
rfemur -11.2977 -6.6571 22.3623
rtibia 39.8599
rfoot -19.9028 -4.17081
rtoes -1.85718
lfemur -8.15638 -4.98788 -20.8102
ltibia 36.3726
lfoot -19.205 -13.2977
ltoes -0.536457
4309
root 10.5866 17.5021 4.75222 484.823 89.3797 490.215
lowerback 12.9135 0.602507 2.24674
upperback 0.766016 1.2284 0.756615
thorax -6.41082 0.568311 -0.696694
lowerneck -21.1278 -2.2866 -10.2596
upperneck 34.1768 1.03277 1.47837
head 15.6346 -0.408836 2.69072
rclavicle -1.85118e-015 -4.37326e-015
rhumerus -37.4482 -10.7281 -76.077
rradius 37.6463
rwrist 5.99374
rhand -13.6622 12.1049
rfingers 7.12502
rthumb 12.4548 -17.504
lclavicle -1.85118e-015 -4.37326e-015
lhumerus -34.3801 15.6012 78.8348
lradius 33.8972
lwrist -1.70443
lhand -23.3931 21.5301
lfingers 7.12502
lthumb 3.06345 51.4878
rfemur -11.0605 -6.48547 22.4446
rtibia 39.6796
rfoot -19.921 -4.20899
rtoes -2.71389
lfemur -8.18681 -4.4505 -20.5089
ltibia 36.7552
lfoot -19.636 -14.2005
ltoes -3.1849
4310
root 10.6044 17.5046 4.73571 486.057 89.5076 491.481
lowerback 12.9873 0.682933 2.30432
upperback 0.779681 1.35233 0.836552
thorax -6.43505 0.62875 -0.668499
lowerneck -21.0574 -2.24665 -10.1021
upperneck 34.0997 1.08056 1.31294
head 15.5794 -0.388271 2.59945
rclavicle 1.46107e-014 7.95139e-015
rhumerus -37.3862 -10.7889 -75.7911
rradius 37.5329
rwrist 6.08349
rhand -13.5781 11.991
rfingers 7.12502
rthumb 12.5359 -17.6129
lclavicle 1.46107e-014 7.95139e-015
lhumerus -34.6462 15.8437 78.9887
lradius 33.896
lwrist -1.92907
lhand -23.6665 21.8604
lfingers 7.12502
lthumb 2.7994 51.8218
rfemur -10.8927 -6.52821 22.4821
rtibia 39.5444
rfoot -20.0076 -4.00924
rtoes -2.5974
lfemur -8.29618 -4.0678 -20.2019
ltibia 37.0786
lfoot -19.7603 -15.5233
ltoes -4.87138
4311
root 10.6213 17.5096 4.71376 499.377 89.497 504.731
lowerback 12.9769 0.717004 2.39817
upperback 0.779727 1.41487 0.885903
thorax -6.42665 0.657694 -0.680557
lowerneck -21.1395 -2.20728 -9.89149
upperneck 34.0785 1.12505 1.15185
head 15.5861 -0.365607 2.50288
rclavicle 7.52897e-015 1.15295e-014
rhumerus -37.2348 -10.9245 -75.5054
rradius 37.3138
rwrist 6.08427
rhand -13.7816 12.0584
rfingers 7.12502
rthumb 12.3397 -17.5574
lclavicle 7.52897e-015 1.15295e-014
lhumerus -34.7802 16.1086 79.1134
lradius 33.7775
lwrist -1.97312
lhand -23.8643 21.6793
lfingers 7.12502
lthumb 2.60841 51.6431
rfemur -10.8391 -6.72839 22.457
rtibia 39.4244
rfoot -20.0676 -3.74141
rtoes -2.13741
lfemur -8.49084 -3.96108 -19.9416
ltibia 37.2943
lfoot -19.6171 -17.1647
ltoes -5.31294
4312
root 10.6377 17.5164 4.69354 489.903 89.4031 495.221
lowerback 13.0721 0.790446 2.3056
upperback 0.766599 1.5015 0.879635
thorax -6.49358 0.70157 -0.652638
lowerneck -21.2774 -2.18887 -10.0239
upperneck 34.1635 1.15192 1.35498
head 15.6534 -0.345418 2.62129
rclavicle 4.5472e-015 0
rhumerus -37.1345 -10.9904 -75.2382
rradius 37.1381
rwrist 6.05185
rhand -13.9984 12.1312
rfingers 7.12502
rthumb 12.1306 -17.4971
lclavicle 4.5472e-015 0
lhumerus -34.8995 16.2918 79.2454
lradius 33.6257
lwrist -1.73091
lhand -23.8053 21.2735
lfingers 7.12502
lthumb 2.6654 51.2366
rfemur -10.7353 -6.6275 22.2479
rtibia 39.2979
rfoot -20.0639 -3.87228
rtoes -2.30605
lfemur -8.59081 -3.74035 -19.88
ltibia 37.4434
lfoot -19.5816 -18.7218
ltoes -6.02577
4313
root 10.6537 17.5238 4.6812 463.356 89.011 468.823
lowerback 13.3807 0.963893 1.74444
upperback 0.789666 1.64658 0.744879
thorax -6.6489 0.785129 -0.511298
lowerneck -21.3222 -2.19228 -10.1269
upperneck 34.1945 1.10408 1.59331
head 15.6773 -0.34517 2.73374
rclavicle 4.78326e-015 7.95139e-016
rhumerus -37.14 -11.1736 -75.0109
rradius 37.0607
rwrist 6.03695
rhand -13.9611 11.9999
rfingers 7.12502
rthumb 12.1666 -17.6263
lclavicle 4.78326e-015 7.95139e-016
lhumerus -35.0239 16.4782 79.277
lradius 33.4233
lwrist -1.83249
lhand -23.6131 21.3949
lfingers 7.12502
lthumb 2.85101 51.3556
rfemur -10.4048 -6.17245 21.6739
rtibia 39.1372
rfoot -20.0587 -4.13418
rtoes -2.27128
lfemur -8.44281 -3.50694 -20.2075
ltibia 37.5522
lfoot -19.378 -20.1535
ltoes -6.43643
